<svg width="24" height="24" viewBox="0 0 24 24" fill="none" xmlns="http://www.w3.org/2000/svg">
<path d="M12 10C12.55 10 13.0209 9.80417 13.4125 9.4125C13.8042 9.02083 14 8.55 14 8C14 7.45 13.8042 6.97917 13.4125 6.5875C13.0209 6.19583 12.55 6 12 6C11.45 6 10.9792 6.19583 10.5875 6.5875C10.1959 6.97917 10 7.45 10 8C10 8.55 10.1959 9.02083 10.5875 9.4125C10.9792 9.80417 11.45 10 12 10ZM12 17.35C14.0334 15.4833 15.5417 13.7875 16.525 12.2625C17.5084 10.7375 18 9.38333 18 8.2C18 6.38333 17.4209 4.89583 16.2625 3.7375C15.1042 2.57917 13.6834 2 12 2C10.3167 2 8.89586 2.57917 7.73753 3.7375C6.5792 4.89583 6.00003 6.38333 6.00003 8.2C6.00003 9.38333 6.4917 10.7375 7.47503 12.2625C8.45836 13.7875 9.9667 15.4833 12 17.35ZM12 20C9.3167 17.7167 7.31253 15.5958 5.98753 13.6375C4.66253 11.6792 4.00003 9.86667 4.00003 8.2C4.00003 5.7 4.8042 3.70833 6.41253 2.225C8.02086 0.741667 9.88336 0 12 0C14.1167 0 15.9792 0.741667 17.5875 2.225C19.1959 3.70833 20 5.7 20 8.2C20 9.86667 19.3375 11.6792 18.0125 13.6375C16.6875 15.5958 14.6834 17.7167 12 20Z" fill="#454B4E"/>
</svg>
