<svg width="140" height="35" viewBox="0 0 140 35" fill="none" xmlns="http://www.w3.org/2000/svg">
<path d="M0.960022 32.224H2.40002C3.32802 32.224 4.01602 32.08 4.46402 31.792C4.91202 31.472 5.13602 31.008 5.13602 30.4V4.048C5.13602 3.40799 4.91202 2.94399 4.46402 2.65599C4.01602 2.36799 3.32802 2.22399 2.40002 2.22399H0.960022V0.399994H16.608V2.22399H15.168C13.376 2.22399 12.48 2.83199 12.48 4.048V29.152C12.48 30.656 13.424 31.408 15.312 31.408H23.904C25.28 31.408 26.352 30.624 27.12 29.056C27.888 27.456 28.384 25.856 28.608 24.256H30.576L29.616 34H0.960022V32.224Z" fill="#121415"/>
<path d="M60.4429 32.128C60.8589 32.128 61.4989 31.984 62.3629 31.696V32.944C61.7229 33.456 60.9229 33.84 59.9629 34.096C59.0029 34.352 57.9789 34.48 56.8909 34.48C55.5789 34.48 54.4589 34.176 53.5309 33.568C52.6349 32.96 52.1869 32.016 52.1869 30.736V30.688C51.4509 31.84 50.3309 32.768 48.8269 33.472C47.3229 34.144 45.7229 34.48 44.0269 34.48C41.1149 34.48 38.9069 33.888 37.4029 32.704C35.9309 31.52 35.1949 29.904 35.1949 27.856V16.48C35.1949 15.552 34.7629 15.088 33.8989 15.088C33.6749 15.088 33.2749 15.184 32.6989 15.376L32.3149 13.888L40.7149 11.104H42.2509V27.232C42.2509 28.768 42.6029 29.92 43.3069 30.688C44.0429 31.424 45.0829 31.792 46.4269 31.792C47.2909 31.792 48.1549 31.536 49.0189 31.024C49.9149 30.512 50.6669 29.712 51.2749 28.624C51.8829 27.504 52.1869 26.112 52.1869 24.448V16.48C52.1869 15.552 51.7389 15.088 50.8429 15.088C50.6509 15.088 50.2669 15.184 49.6909 15.376L49.2589 13.888L57.8029 11.104H59.2429V30.496C59.2429 31.584 59.6429 32.128 60.4429 32.128Z" fill="#121415"/>
<path d="M77.823 34.48C73.535 34.48 70.255 33.488 67.983 31.504C65.711 29.488 64.575 26.56 64.575 22.72C64.575 20.416 65.071 18.384 66.063 16.624C67.087 14.832 68.559 13.44 70.479 12.448C72.431 11.456 74.767 10.96 77.487 10.96C79.087 10.96 80.639 11.168 82.143 11.584C83.647 12 84.911 12.72 85.935 13.744L86.415 10.96H88.095V19.696H86.511C86.159 17.52 85.375 15.936 84.159 14.944C82.943 13.92 81.407 13.408 79.551 13.408C77.023 13.408 75.087 14.288 73.743 16.048C72.399 17.808 71.727 20.048 71.727 22.768C71.727 25.552 72.351 27.824 73.599 29.584C74.847 31.312 76.591 32.176 78.831 32.176C83.087 32.176 85.615 30.08 86.415 25.888H88.287C88.031 28.416 87.007 30.48 85.215 32.08C83.455 33.68 80.991 34.48 77.823 34.48Z" fill="#121415"/>
<path d="M97.9669 34.48C95.9189 34.48 94.2549 34.032 92.9749 33.136C91.6949 32.24 91.0549 30.992 91.0549 29.392C91.0549 26.96 92.3029 25.008 94.7989 23.536C97.3269 22.032 101.151 20.928 106.271 20.224V18.208C106.271 16.672 105.807 15.52 104.879 14.752C103.983 13.984 102.767 13.6 101.231 13.6C100.079 13.6 99.0549 13.824 98.1589 14.272C97.2629 14.72 96.8149 15.184 96.8149 15.664C96.8149 15.824 96.8469 16.08 96.9109 16.432C97.0069 16.784 97.0549 17.056 97.0549 17.248C97.0549 17.632 96.8309 18.032 96.3829 18.448C95.9349 18.832 95.3429 19.024 94.6069 19.024C93.7109 19.024 93.0389 18.784 92.5909 18.304C92.1749 17.792 91.9669 17.152 91.9669 16.384C91.9669 14.656 92.9429 13.328 94.8949 12.4C96.8789 11.44 99.4869 10.96 102.719 10.96C106.015 10.96 108.607 11.648 110.495 13.024C112.415 14.4 113.375 16.224 113.375 18.496V30.496C113.375 31.072 113.471 31.488 113.663 31.744C113.887 31.968 114.207 32.08 114.623 32.08C115.103 32.08 115.727 31.952 116.495 31.696V32.944C115.855 33.424 115.055 33.792 114.095 34.048C113.135 34.336 112.143 34.48 111.119 34.48C109.807 34.48 108.687 34.256 107.759 33.808C106.863 33.328 106.415 32.576 106.415 31.552V31.072C105.295 32.32 103.983 33.2 102.479 33.712C100.975 34.224 99.4709 34.48 97.9669 34.48ZM101.471 31.84C102.335 31.84 103.231 31.552 104.159 30.976C105.119 30.368 105.823 29.648 106.271 28.816V22.192C103.423 22.96 101.327 23.952 99.9829 25.168C98.6709 26.352 98.0149 27.584 98.0149 28.864C98.0149 29.792 98.3189 30.528 98.9269 31.072C99.5669 31.584 100.415 31.84 101.471 31.84Z" fill="#121415"/>
<path d="M129.241 34.48C125.465 34.48 122.713 33.488 120.985 31.504L120.505 34.24H118.825V26.944H120.409C120.793 28.416 121.593 29.632 122.809 30.592C124.057 31.52 125.513 31.984 127.177 31.984C128.809 31.984 130.089 31.712 131.017 31.168C131.945 30.624 132.409 29.808 132.409 28.72C132.409 27.952 132.009 27.344 131.209 26.896C130.441 26.416 129.193 25.888 127.465 25.312C125.705 24.736 124.233 24.176 123.049 23.632C121.897 23.056 120.905 22.256 120.073 21.232C119.241 20.176 118.825 18.832 118.825 17.2C118.825 15.216 119.609 13.68 121.177 12.592C122.745 11.504 125.097 10.96 128.233 10.96C129.769 10.96 131.305 11.2 132.841 11.68C134.409 12.128 135.609 12.8 136.441 13.696L136.921 10.96H138.601V18.16H136.969C136.649 16.816 135.881 15.712 134.665 14.848C133.481 13.984 132.057 13.552 130.393 13.552C128.985 13.552 127.849 13.808 126.985 14.32C126.153 14.8 125.737 15.472 125.737 16.336C125.737 17.2 126.137 17.872 126.937 18.352C127.769 18.8 129.097 19.312 130.921 19.888C132.713 20.4 134.169 20.928 135.289 21.472C136.441 21.984 137.417 22.752 138.217 23.776C139.049 24.8 139.465 26.128 139.465 27.76C139.465 30.096 138.505 31.808 136.585 32.896C134.665 33.952 132.217 34.48 129.241 34.48Z" fill="#121415"/>
</svg>
