<svg width="42" height="48" viewBox="0 0 42 48" fill="none" xmlns="http://www.w3.org/2000/svg">
<path d="M8.63437 23.8688C8.63437 26.2031 9.29063 28.4813 10.5281 30.4406L10.8188 30.9094L9.57187 35.4656L14.25 34.2375L14.7 34.5094C16.5938 35.6344 18.7687 36.2344 20.9906 36.2344H21C27.8062 36.2344 33.4969 30.6937 33.4969 23.8781C33.4969 20.5781 32.0719 17.475 29.7375 15.1406C27.3938 12.7969 24.3 11.5125 21 11.5125C14.1844 11.5125 8.64375 17.0531 8.63437 23.8688ZM25.7625 30.9375C24.5812 31.1156 23.6625 31.0219 21.3094 30.0094C17.8594 28.5188 15.5156 25.1812 15.0375 24.5062C15 24.45 14.9719 24.4219 14.9625 24.4031C14.775 24.1594 13.4437 22.3875 13.4437 20.5594C13.4437 18.8344 14.2875 17.9438 14.6813 17.5312C14.7094 17.5031 14.7281 17.4844 14.7469 17.4562C15.0844 17.0812 15.4875 16.9875 15.7406 16.9875C15.9844 16.9875 16.2375 16.9875 16.4531 16.9969C16.4813 16.9969 16.5 16.9969 16.5281 16.9969C16.7438 16.9969 17.0156 16.9969 17.2875 17.6344C17.4 17.9063 17.5688 18.3187 17.7469 18.7406C18.0563 19.4906 18.375 20.2688 18.4313 20.3906C18.525 20.5781 18.5906 20.7937 18.4594 21.0375C18.1406 21.675 17.8125 22.0125 17.5875 22.2562C17.2969 22.5562 17.1656 22.6969 17.3719 23.0625C18.8063 25.5281 20.2406 26.3813 22.425 27.4781C22.8 27.6656 23.0156 27.6375 23.2313 27.3844C23.4469 27.1406 24.1594 26.2969 24.4031 25.9313C24.6469 25.5563 24.9 25.6219 25.2375 25.7438C25.575 25.8656 27.4031 26.7656 27.7781 26.9531C27.8531 26.9906 27.9187 27.0187 27.975 27.0469C28.2375 27.1781 28.4156 27.2625 28.4906 27.3844C28.575 27.5625 28.575 28.3125 28.2656 29.175C27.9563 30.0469 26.475 30.8344 25.7625 30.9375ZM42 9C42 5.69063 39.3094 3 36 3H6C2.69063 3 0 5.69063 0 9V39C0 42.3094 2.69063 45 6 45H36C39.3094 45 42 42.3094 42 39V9ZM13.8844 36.9281L6 39L8.10938 31.2937C6.80625 29.0437 6.12188 26.4844 6.12188 23.8594C6.13125 15.6656 12.7969 9 20.9906 9C24.9656 9 28.6969 10.5469 31.5094 13.3594C34.3125 16.1719 36 19.9031 36 23.8781C36 32.0719 29.1844 38.7375 20.9906 38.7375C18.4969 38.7375 16.05 38.1094 13.8844 36.9281Z" fill="#1778EA"/>
</svg>
